<?xml version="1.0" encoding="utf-8"?>
<!-- Generator: Adobe Illustrator 21.0.0, SVG Export Plug-In . SVG Version: 6.00 Build 0)  -->
<svg version="1.1" xmlns="http://www.w3.org/2000/svg" xmlns:xlink="http://www.w3.org/1999/xlink" x="0px" y="0px"
	 viewBox="0 0 24 24" style="enable-background:new 0 0 24 24;" xml:space="preserve">
<style type="text/css">
	.st0{fill:#FFFFFF;}
</style>
<g id="Layer_2">
</g>
<g id="Layer_1">
	<path class="st0" d="M9.7,7.6H15l0.6-2.8c0,0,0.3-1.6-1.8-1.8c-2.1-0.2-6.8,0-6.8,0S4.3,2.8,3.5,5.7S1.4,13,1.4,13s-1,2.9,2.5,3.1
		c3.5,0.2,5,0,5,0s3-0.1,3.5-2.2c0.5-2.2,0.7-1.9,0.7-1.9H8.4c0,0-0.1,1.2-1.5,1c-1.4-0.2-0.7-1.4-0.7-1.4l1.1-4.2
		c0,0,0.1-1.6,1.5-1.7C10.2,5.6,10,6.8,9.7,7.6z"/>
	<path class="st0" d="M10.8,8.4c1.3,0,2.5,0,3.8,0c1.1,0,2.2,0,3.3,0c0.6,0,1.1,0,1.7,0c0.5,0,1,0,1.4,0.3c0.7,0.5,0.6,1.6,0.4,2.3
		c-0.9,3.4-1.6,6-1.6,6s-0.3,2.1-3.6,2s-3,0-3,0L12,22.6H7l1.1-1.7l1.2-4.5l5,0.1c0,0,1.2,0.5,1.5-1.4l0.7-2.8c0,0,0.8-1.7-1.1-1.5
		s-4.6,0.1-4.6,0.1l0.5-1.3C11.3,9.5,10.8,8.4,10.8,8.4z"/>
</g>
</svg>
