<?xml version="1.0" encoding="utf-8"?>
<!-- Generator: Adobe Illustrator 21.0.0, SVG Export Plug-In . SVG Version: 6.00 Build 0)  -->
<svg version="1.1" xmlns="http://www.w3.org/2000/svg" xmlns:xlink="http://www.w3.org/1999/xlink" x="0px" y="0px"
	 viewBox="0 0 24 24" style="enable-background:new 0 0 24 24;" xml:space="preserve">
<style type="text/css">
	.st0{fill:#FFFFFF;}
</style>
<g id="Layer_2">
</g>
<g id="Layer_1">
	<polygon class="st0" points="8.8,9.2 12,9.2 12,4.6 1.3,4.6 1.3,7.6 2.5,7.6 2.5,17.1 1.3,17.1 1.3,20.2 12,20.2 12,15.6 8.8,15.6 
		8.8,17.4 5.8,17.4 5.8,13.8 9,13.8 9,10.7 5.8,10.7 5.8,7.7 8.9,7.7 	"/>
	<polygon class="st0" points="16.2,4.6 20.2,4.6 22.7,7.2 22.7,9.3 19.8,9.3 19.8,7.6 16.7,7.6 16.7,17.2 19.8,17.2 19.8,13.9 
		18.1,13.9 18.1,10.9 22.7,10.9 22.7,17.5 20.4,19.9 16.2,19.9 13.8,17.5 13.8,7.4 	"/>
</g>
</svg>
